<?xml version="1.0" encoding="UTF-8"?>
<svg width="700pt" height="700pt" version="1.1" viewBox="0 0 700 700" xmlns="http://www.w3.org/2000/svg">
 <path d="m210 245c0 57.992 47.012 105 105 105 57.992 0 105-47.008 105-105 0-57.988-47.008-105-105-105-57.988 0-105 47.012-105 105zm-46.668 0c0 83.766 67.906 151.67 151.67 151.67 33.461 0 64.395-10.836 89.473-29.191l84.113 84.109c4.5586 4.5508 11.945 4.5508 16.5-0.003907l16.5-16.5c4.5547-4.5547 4.5547-11.941 0-16.5l-84.113-84.102c18.355-25.086 29.195-56.02 29.195-89.48 0-83.762-67.902-151.67-151.67-151.67-83.762 0-151.67 67.906-151.67 151.67z" fill-rule="evenodd"/>
</svg>
